<svg version="1.1" id="Layer_1" xmlns="http://www.w3.org/2000/svg" xmlns:xlink="http://www.w3.org/1999/xlink" x="0px" y="0px"
	 width="100%" viewBox="0 0 1024 1024" enable-background="new 0 0 1024 1024" xml:space="preserve">
<path fill="#000000" opacity="1.000000" stroke="none" 
	d="
M761.390259,468.485657 
	C757.370850,470.746063 753.640076,472.794495 749.868713,474.865204 
	C750.963989,477.546936 753.215271,478.581482 754.753113,480.259766 
	C772.747925,499.897675 772.748596,524.096741 754.822205,544.168274 
	C745.470764,554.638611 733.931641,559.043091 720.030151,557.468994 
	C715.428162,556.947876 714.112854,558.518311 716.076721,562.773010 
	C727.388916,587.280701 709.617188,625.068359 675.441284,626.116943 
	C668.422363,626.332397 661.502991,625.371582 655.144531,621.941406 
	C651.742188,620.106079 648.896423,621.836975 649.079956,625.616089 
	C649.948608,643.507263 641.402649,656.617493 626.816711,665.321045 
	C611.779053,674.294128 595.895813,673.277710 580.676880,664.743774 
	C575.321716,661.740906 571.695496,656.871521 568.680054,651.594116 
	C567.656799,649.803284 566.663879,648.122986 564.149475,648.412781 
	C561.595642,648.706970 560.489624,650.307739 559.806396,652.577454 
	C554.956055,668.688965 544.535034,679.553894 528.756775,685.296936 
	C527.386780,685.795532 526.208618,686.440002 526.255554,687.996094 
	C526.395813,692.640991 525.409119,697.434937 526.928101,701.893311 
	C528.272034,705.838074 528.550049,709.743164 527.977722,713.702942 
	C526.825012,721.678162 527.632019,729.678955 527.311218,737.658691 
	C527.189270,740.692505 528.455933,741.822144 531.427856,741.780640 
	C539.592041,741.666748 547.758484,741.672363 555.923767,741.700806 
	C562.464844,741.723511 566.174438,745.154541 566.316467,751.173096 
	C566.490540,758.546997 562.420898,764.092163 556.102722,764.148499 
	C548.455750,764.216736 540.789429,763.829895 533.157837,763.276306 
	C528.509766,762.939087 527.179749,764.588623 527.227173,769.200745 
	C527.444580,790.362732 527.319702,811.528259 527.289856,832.692566 
	C527.287048,834.685669 527.287231,836.713074 526.945251,838.664856 
	C526.003052,844.042847 521.872620,848.241089 517.668335,848.334900 
	C513.804565,848.421143 508.774506,843.942627 507.816315,839.032654 
	C507.151062,835.623718 506.866516,832.084961 506.886444,828.606934 
	C507.000854,808.623230 505.966248,788.619812 507.654541,768.662964 
	C508.013519,764.419250 506.391479,763.026306 502.287506,763.292175 
	C494.650452,763.786865 486.986206,763.863220 479.349365,764.360779 
	C474.613892,764.669373 472.203094,762.266235 471.064789,758.124634 
	C470.123657,754.700562 470.033691,751.135498 470.853058,747.723145 
	C471.816895,743.709229 474.524414,741.512817 478.860931,741.702942 
	C486.347443,742.031189 493.833618,742.382019 501.323303,742.612854 
	C503.093201,742.667419 504.990936,743.110962 506.656982,741.953308 
	C506.656982,731.124756 506.596222,720.333313 506.679565,709.543030 
	C506.730408,702.959900 509.632080,696.691040 508.769684,689.940125 
	C508.439636,687.356384 508.093140,685.529053 505.161926,684.908569 
	C487.694611,681.211304 479.046204,668.974060 474.335327,652.926758 
	C473.680176,650.695068 473.964203,647.767090 470.378754,647.403687 
	C466.970093,647.058228 465.779205,649.303223 464.403503,651.683228 
	C455.290100,667.449341 436.955933,674.519775 417.140839,669.972046 
	C398.436340,665.679199 383.719910,647.129761 383.642975,627.749390 
	C383.612244,620.006287 381.819275,618.979675 374.819244,622.697144 
	C362.569397,629.202576 341.254486,625.320740 329.587341,614.636902 
	C316.527863,602.678040 307.698212,581.987549 317.900635,562.095337 
	C319.724396,558.539429 318.195648,557.279358 314.551392,557.299438 
	C310.068604,557.324158 305.571075,557.730652 301.109009,556.736572 
	C283.267334,552.761780 272.596008,540.973267 268.148132,524.098511 
	C263.506409,506.488342 267.943512,490.802368 282.286194,478.648041 
	C283.287872,477.799164 284.516205,477.108643 284.473053,475.301941 
	C265.040833,467.679840 254.252335,452.932159 254.086807,432.362610 
	C253.922195,411.903229 263.757080,396.399994 283.179169,388.300903 
	C283.460663,385.757874 281.700500,384.753937 280.523529,383.454895 
	C266.485474,367.960999 262.828796,350.225311 271.432220,331.250549 
	C279.355347,313.776093 294.050171,305.135864 313.281586,304.784668 
	C317.898682,304.700317 318.209503,303.147278 316.742065,299.318817 
	C309.768494,281.125061 314.675720,261.380646 329.212128,248.299088 
	C343.297668,235.623260 363.001740,233.020920 380.439209,241.520386 
	C381.595673,242.084061 382.626312,243.137650 384.491180,242.500671 
	C384.794983,235.398941 384.132355,228.140335 386.432678,220.994049 
	C392.771759,201.300827 416.031311,187.186646 436.488739,190.136353 
	C450.797089,192.199463 461.624695,198.287766 467.688995,211.770844 
	C468.372009,213.289444 469.077393,215.025986 471.207092,214.690567 
	C473.312286,214.359009 473.423248,212.512207 473.709991,210.858643 
	C475.871033,198.396957 481.878326,188.583755 492.865479,181.826538 
	C513.530518,169.117401 545.862732,172.852417 558.098999,201.242813 
	C559.282898,203.989792 560.252136,206.829086 561.329529,209.622223 
	C562.740906,213.281113 564.547119,213.687576 566.860474,210.442703 
	C570.285522,205.638474 574.297607,201.476013 578.927917,197.878036 
	C603.535767,178.756454 643.481873,194.572830 648.521057,225.242538 
	C649.416443,230.691910 648.835022,236.169128 649.724854,242.328522 
	C669.727661,232.656921 688.937256,232.452286 705.056946,248.571320 
	C720.747375,264.261139 723.431519,283.274170 714.362549,304.678558 
	C737.456177,302.796600 754.202759,311.717865 763.367065,332.617920 
	C772.641357,353.768768 766.146729,371.472107 750.034546,386.634430 
	C751.248230,389.017029 753.721069,389.486603 755.673889,390.593994 
	C781.318054,405.136261 788.380432,438.194458 770.337952,460.013702 
	C767.813599,463.066376 764.582703,465.534790 761.390259,468.485657 
M683.009460,535.803345 
	C683.870728,535.755127 685.283020,536.341431 684.743286,534.528809 
	C684.221497,532.776306 683.541870,531.069946 682.910950,529.350952 
	C676.129517,510.874146 681.301453,491.596436 696.250793,478.766846 
	C700.287964,475.302185 704.803833,472.600128 709.764465,469.567047 
	C700.699707,458.133484 692.358948,446.808594 692.608154,431.466125 
	C692.852051,416.448273 699.364746,404.456604 709.908691,393.897339 
	C681.444519,379.367249 672.526306,357.579712 683.581482,327.525177 
	C646.798340,326.057068 628.623962,307.693573 631.398804,270.155823 
	C630.378967,270.709259 629.665833,271.059875 628.988098,271.469299 
	C601.096191,288.320984 567.164001,273.329437 560.881470,241.403610 
	C560.528625,239.610535 561.401855,236.828964 558.571411,236.555786 
	C556.207947,236.327667 556.145996,238.964478 555.374268,240.483521 
	C547.150024,256.672363 530.272156,264.398499 514.745605,263.978149 
	C498.223358,263.530914 486.181213,255.187714 478.190674,240.819000 
	C477.431946,239.454605 476.897644,237.622574 474.520081,237.721909 
	C463.370056,275.536652 439.290222,286.784607 403.247559,272.374817 
	C404.382812,309.518463 384.175537,325.540344 348.778473,326.929749 
	C362.391266,357.385834 350.435547,378.265503 323.749329,393.507324 
	C347.852386,419.228699 349.423096,444.332153 322.006165,468.979462 
	C349.710663,483.494537 360.957855,504.411041 349.001740,535.486206 
	C365.170074,534.758362 378.894958,538.021240 389.730011,549.726685 
	C400.435150,561.291809 403.626343,574.925964 401.920013,590.159912 
	C402.835541,590.035950 403.019958,590.059265 403.148926,589.985535 
	C403.869293,589.573547 404.563782,589.115356 405.289764,588.713989 
	C419.516266,580.849365 434.176575,579.524597 448.602417,587.477966 
	C462.619324,595.205933 470.540283,607.489502 472.268372,623.567566 
	C472.448273,625.241150 471.715271,627.427063 475.033997,628.122070 
	C478.320099,621.454773 482.297272,615.101501 488.091095,609.887817 
	C509.104462,590.978394 543.921631,597.458862 554.378418,622.416626 
	C555.090149,624.115417 555.091064,626.882446 557.901855,626.461487 
	C560.605835,626.056519 561.503296,623.822205 561.650024,621.274963 
	C563.135193,595.500793 599.097717,571.038086 627.332520,587.988770 
	C628.505493,588.692932 629.613525,590.031982 631.420166,589.282532 
	C632.135498,583.993530 631.191895,578.653809 632.119629,573.360596 
	C635.553223,553.769287 655.446350,532.469543 683.009460,535.803345 
M707.208618,524.768738 
	C723.162415,526.083252 735.782166,520.454041 744.619446,506.869232 
	C746.526245,503.938019 747.688782,500.967010 746.022156,497.528503 
	C741.631958,488.470673 730.354431,482.688751 721.080994,488.143066 
	C719.580994,486.891388 718.546997,484.883423 715.743042,486.076691 
	C709.141724,488.886017 703.354858,492.482574 700.105957,499.204529 
	C698.933044,501.631317 697.971436,503.866791 700.236938,506.439819 
	C701.429260,507.794098 702.346008,509.640289 701.279846,511.938995 
	C698.230042,518.514771 699.492004,521.409973 707.208618,524.768738 
M343.109528,586.276245 
	C346.476532,593.363770 355.733398,594.879517 362.014618,589.372437 
	C364.003296,587.628784 365.499084,584.864380 368.160706,584.454895 
	C372.637482,583.766113 374.953705,580.331665 377.619781,577.591309 
	C379.666260,575.487793 381.514984,572.380920 381.801300,569.553101 
	C382.319946,564.431091 374.671753,556.958130 368.460052,555.485413 
	C363.935455,554.412659 361.008667,556.215088 357.565704,562.320312 
	C354.483246,560.298950 354.497040,556.587585 352.823792,553.626160 
	C344.891449,554.428589 337.958649,556.842102 333.381805,563.948547 
	C329.694092,569.674377 330.561768,574.385681 336.654877,576.689575 
	C341.114380,578.375671 342.842560,581.166992 343.109528,586.276245 
M612.208862,632.799072 
	C619.025452,627.980957 625.358337,623.047180 625.423523,613.386475 
	C625.465759,607.129822 623.015747,603.826050 616.812256,603.944885 
	C614.588135,603.987427 612.651001,603.169800 610.573303,602.577637 
	C603.641724,600.602173 596.574280,598.380249 589.989380,603.798340 
	C588.196960,605.273193 586.046631,606.316406 584.272766,607.809875 
	C577.054565,613.887085 577.655762,620.205383 585.753296,624.930054 
	C587.575317,625.993103 589.611633,626.922241 589.367065,629.719727 
	C588.881348,635.275391 592.666077,639.033813 597.937439,637.758850 
	C602.571594,636.638062 607.011780,634.714722 612.208862,632.799072 
M506.090973,617.489990 
	C501.079071,619.505554 496.596222,622.214172 493.401703,626.752869 
	C489.578644,632.184753 490.505127,637.027344 496.274445,640.109924 
	C498.261414,641.171509 500.154816,642.628174 501.083954,644.308105 
	C504.907440,651.221191 510.282928,650.625916 516.495850,648.523804 
	C519.051514,647.659119 521.206543,646.650085 523.371094,644.926941 
	C527.016418,642.025085 529.762878,638.206604 533.718201,635.621887 
	C536.622131,633.724182 536.962280,627.242188 534.842590,624.328735 
	C528.283569,615.313538 518.937378,615.450195 506.090973,617.489990 
M302.610382,518.924194 
	C303.441833,518.924438 304.273834,518.905334 305.104675,518.927917 
	C315.871765,519.220703 317.127930,518.448486 321.118652,508.622406 
	C322.041565,506.349976 323.670868,504.786743 325.510406,503.331299 
	C330.203552,499.618073 330.131042,494.952057 325.340424,491.255707 
	C319.674438,486.883942 313.895996,483.505737 306.822571,489.798126 
	C305.515167,483.550232 301.738831,485.262695 298.344910,486.651123 
	C292.118774,489.198181 287.493958,493.494507 284.455444,499.619141 
	C282.840790,502.873718 283.191956,504.771912 286.703522,506.195465 
	C289.431519,507.301392 292.790131,508.482666 292.824432,512.048096 
	C292.885315,518.379822 296.439331,519.586060 302.610382,518.924194 
M664.917725,579.702698 
	C667.350098,579.251404 669.906433,577.550964 672.109558,580.077087 
	C671.728760,582.585083 669.460693,583.374939 668.660645,585.202820 
	C668.175049,586.312378 667.865295,587.412415 668.460144,588.551697 
	C669.009399,589.603638 669.961548,589.715027 671.022888,589.547607 
	C673.855957,589.100769 682.874146,580.469482 683.561768,577.529053 
	C685.227417,570.406677 685.224792,570.413086 691.755188,573.144653 
	C692.513062,573.461609 693.311340,573.835571 694.107300,573.878601 
	C696.449890,574.005249 697.929749,572.765625 698.348999,570.515808 
	C698.935303,567.369385 693.828308,559.439209 689.996155,557.576904 
	C685.755127,555.515930 682.533936,558.231995 679.636292,560.502258 
	C675.193359,563.983215 675.448853,564.168762 672.630981,558.989990 
	C671.359253,556.653015 670.521179,553.157288 666.641724,554.473511 
	C659.208252,556.995605 652.636047,560.579529 649.821350,568.731567 
	C648.561707,572.379761 648.598816,574.760620 652.749512,576.598572 
	C656.464539,578.243530 660.093872,579.617371 664.917725,579.702698 
M356.406799,281.446442 
	C361.821655,275.725403 366.380646,268.997589 374.576477,266.614899 
	C376.259308,266.125671 378.327148,265.104401 378.225983,262.993713 
	C378.115570,260.690674 376.147614,259.208435 374.266266,258.229614 
	C372.189575,257.149200 371.071594,259.077423 369.706116,260.276642 
	C367.728790,262.013214 365.612976,263.611511 363.442963,265.104065 
	C361.051270,266.749084 359.021088,266.003876 357.495422,263.715576 
	C355.500671,260.723663 353.654755,257.640228 352.309021,253.998169 
	C345.208954,255.837341 339.452637,259.385956 334.893219,264.564636 
	C330.377411,269.693695 330.611816,271.120667 334.897369,276.333069 
	C335.422882,276.972229 335.830109,277.707184 336.316711,278.380005 
	C338.904816,281.958405 342.413574,283.320892 346.754364,282.756012 
	C349.714447,282.370789 352.683777,282.056183 356.406799,281.446442 
M425.432404,605.105164 
	C424.049133,598.772156 423.588440,598.443481 417.643585,600.945068 
	C414.447693,602.289917 411.222107,603.760071 408.386810,605.719177 
	C404.387848,608.482361 401.283752,612.911072 402.086090,617.415527 
	C402.772369,621.268311 407.281311,623.539001 411.516754,624.530884 
	C412.807617,624.833191 414.124969,625.024963 415.411316,625.343689 
	C416.865051,625.703857 418.498413,626.037415 419.261353,627.412354 
	C422.238098,632.776917 426.555756,630.955261 431.674927,630.064880 
	C428.608582,624.968567 426.279114,620.265442 426.793365,614.747681 
	C427.073120,611.745972 426.345154,608.816345 425.432404,605.105164 
M651.548401,264.140594 
	C649.725586,268.645477 646.871094,273.142639 652.169861,277.399048 
	C653.249023,278.265961 652.839661,279.859070 652.533997,281.186707 
	C652.233398,282.492828 651.909912,283.859711 654.104980,284.610657 
	C656.782288,281.074921 660.807129,280.792999 665.011841,280.960968 
	C666.753601,281.030518 668.153748,280.230011 669.326660,278.873566 
	C675.368103,271.886719 676.235352,262.590759 671.645691,254.842194 
	C670.779907,253.380493 669.605347,253.079636 668.313721,253.432037 
	C661.883484,255.186401 655.395142,256.916351 651.548401,264.140594 
M698.441101,336.052521 
	C697.641296,338.794708 695.438660,341.919464 699.007324,344.022095 
	C705.869446,348.065155 713.166504,349.425293 720.856628,346.216980 
	C725.304199,344.361450 727.620789,339.090576 724.804138,335.781128 
	C722.335327,332.880432 720.966980,329.661407 719.774292,326.240234 
	C719.000854,324.021973 717.600403,322.941254 715.259216,323.441864 
	C708.017334,324.990387 701.689819,327.844391 698.441101,336.052521 
M585.038818,231.691177 
	C588.782593,235.386444 593.485840,234.036728 597.861145,233.958649 
	C601.491821,233.893814 603.160095,231.582169 604.198364,228.070908 
	C606.308350,220.935425 602.611572,215.089539 600.656677,208.848358 
	C599.960266,206.625000 598.006958,207.156982 596.442749,207.691528 
	C591.329712,209.438797 586.643555,212.083588 583.022705,216.073944 
	C577.310791,222.368683 577.775085,225.828079 585.038818,231.691177 
M404.032135,220.383804 
	C402.411194,227.324127 403.770386,230.084396 410.446045,232.016327 
	C414.414764,233.164917 418.583771,233.611649 422.649628,234.438171 
	C425.014252,234.918869 425.927826,233.658432 426.532440,231.651367 
	C429.068024,223.234619 427.131714,215.394272 423.621033,207.053787 
	C416.138367,210.091995 408.746826,212.531616 404.032135,220.383804 
M730.365784,426.874329 
	C732.116272,425.615387 733.842224,424.320343 735.625793,423.110107 
	C736.815918,422.302643 737.834595,421.436890 737.051147,419.870819 
	C734.826050,415.422821 732.503296,411.023529 730.292542,406.568573 
	C729.302979,404.574524 727.852905,403.953217 725.807434,404.693146 
	C717.625366,407.653046 711.821533,412.879425 709.728088,421.627502 
	C709.451599,422.783051 709.269165,423.874481 710.171936,424.906189 
	C715.096619,430.534943 724.039856,431.654388 730.365784,426.874329 
M297.161499,348.678436 
	C298.487305,348.793304 299.811066,348.966217 301.139282,349.013428 
	C308.425720,349.272491 309.921661,347.745117 310.042999,340.529114 
	C310.139038,334.818695 306.504486,330.198792 305.687439,324.748260 
	C305.440063,323.098297 303.713196,323.407715 302.341980,323.673218 
	C293.733887,325.339935 284.895966,334.899567 283.811005,344.008698 
	C287.942627,345.477325 292.139221,346.969055 297.161499,348.678436 
M297.281799,416.722351 
	C296.711731,413.266571 296.040253,409.854950 293.949127,406.904022 
	C292.822754,405.314545 291.597046,404.262146 289.413025,404.582794 
	C280.339966,405.914734 272.092285,415.689606 272.318726,425.062988 
	C275.644348,425.816437 278.257324,427.863068 280.732727,430.088470 
	C282.077881,431.297791 283.472656,432.004822 285.244598,431.247375 
	C291.467041,428.587494 296.693573,425.033600 297.281799,416.722351 
M500.241455,217.450699 
	C511.490723,218.881943 516.170410,214.756500 514.810852,204.253128 
	C514.308350,200.371246 513.058655,196.586105 512.009583,192.166245 
	C503.887909,194.356430 496.877869,197.486145 492.151123,204.208176 
	C487.913055,210.235214 489.208618,213.777191 496.089447,216.239563 
	C497.183350,216.631027 498.325928,216.886551 500.241455,217.450699 
M655.692139,581.785278 
	C654.285828,581.020935 652.908630,579.505920 651.215271,580.657104 
	C649.468079,581.844849 650.612671,583.653870 650.778137,585.217346 
	C650.882202,586.200195 650.998169,587.182678 651.065186,588.168274 
	C651.241333,590.761230 652.510010,592.249207 655.200195,591.820190 
	C657.618103,591.434570 658.990540,589.868103 658.900574,587.339050 
	C658.826904,585.268311 657.971130,583.517395 655.692139,581.785278 
M324.742401,338.773560 
	C325.613617,341.015991 326.914917,342.904785 329.427063,340.918640 
	C335.202515,336.352295 328.729248,334.023956 327.783997,330.616516 
	C321.628540,332.735718 321.628540,332.735718 324.742401,338.773560 
M718.734680,437.319336 
	C720.346375,435.443970 719.654053,433.976379 717.851379,432.810822 
	C716.638611,432.026703 715.309937,431.943298 714.189514,432.979431 
	C712.949219,434.126373 712.742188,435.652374 713.512390,437.066345 
	C714.682007,439.213654 716.437744,438.764771 718.734680,437.319336 
M614.240356,220.547134 
	C612.906555,221.896561 612.782776,223.395645 614.616272,224.102264 
	C616.272400,224.740509 617.761292,223.374313 617.947327,221.924347 
	C618.255798,219.520142 616.280640,220.126938 614.240356,220.547134 
z"/>
<path fill="#000000" opacity="1.000000" stroke="none" 
	d="
M397.554138,523.416443 
	C375.729950,495.803314 364.072266,464.931244 364.642761,429.872437 
	C365.678711,366.209320 396.592041,321.347565 453.217072,294.755554 
	C488.990662,277.955719 527.068420,275.246979 565.226868,287.240265 
	C597.984985,297.536255 623.689514,317.779846 643.397278,345.776825 
	C657.682556,366.070740 666.535828,388.584137 669.016846,413.197052 
	C672.994141,452.653412 662.862671,488.318756 638.360657,519.754272 
	C613.279236,551.933228 579.754944,569.779236 540.342651,577.495239 
	C527.488770,580.011780 514.404724,578.952454 501.504974,577.828674 
	C462.017242,574.388794 429.671143,556.165894 402.076141,528.550781 
	C400.550598,527.024170 399.208771,525.313904 397.554138,523.416443 
M407.774261,351.271698 
	C393.043579,370.340179 384.042358,391.726593 382.553131,415.880615 
	C381.379944,434.908997 382.063995,453.942505 388.547974,472.103241 
	C406.663849,522.843689 459.549713,561.584412 514.986877,560.952087 
	C547.487488,560.581360 576.805115,551.823059 602.217590,531.581543 
	C642.596436,499.418854 657.665771,456.974274 650.224243,406.571838 
	C646.174927,379.145630 632.731689,355.593658 612.697754,336.925690 
	C569.981689,297.122192 520.374268,287.687103 465.603607,307.873749 
	C442.426300,316.416168 423.565338,331.367950 407.774261,351.271698 
z"/>
<path fill="#000000" opacity="1.000000" stroke="none" 
	d="
M528.888428,476.039795 
	C528.537048,491.841644 528.338135,507.143768 529.254272,522.452637 
	C529.646057,528.999878 527.882751,530.476074 521.392334,530.193726 
	C518.901917,530.085388 516.424316,529.699524 513.938477,529.465454 
	C507.407166,528.850220 505.670349,527.204224 505.958160,520.753479 
	C507.510468,485.962921 506.322998,451.150452 506.913940,416.353394 
	C507.032593,409.365021 507.001404,409.202362 500.208771,409.417603 
	C486.902557,409.839355 473.598511,410.376312 460.301880,411.033539 
	C452.816711,411.403534 450.756714,409.609528 450.653137,402.042114 
	C450.593903,397.716370 450.401581,393.392426 450.337280,389.066681 
	C450.262390,384.030762 452.287079,382.268036 457.238312,382.462799 
	C472.203186,383.051422 487.208221,382.232666 502.148529,383.673096 
	C506.029785,384.047241 507.010925,382.223297 506.879211,378.667847 
	C506.336884,364.030182 506.991730,349.370850 505.818207,334.732971 
	C505.242737,327.554810 506.414551,326.709442 513.649719,326.678925 
	C516.980835,326.664856 520.328674,326.886505 523.639099,326.624481 
	C527.965820,326.282043 529.568115,327.889465 529.410706,332.319153 
	C528.884949,347.116455 527.869507,361.902893 528.309387,376.729706 
	C528.511475,383.541687 528.471313,383.845215 535.360962,383.609833 
	C549.503784,383.126617 563.639709,382.477509 577.797485,382.658844 
	C584.199158,382.740875 584.981506,383.385712 585.369812,389.725800 
	C585.664795,394.542267 586.079712,399.370209 585.999634,404.185730 
	C585.910095,409.565247 583.983948,411.377686 578.584900,411.291321 
	C563.601135,411.051514 548.616028,410.756409 533.640625,410.223297 
	C529.450195,410.074127 528.203491,411.479919 528.250183,415.604248 
	C528.476379,435.585205 528.086609,455.572479 528.888428,476.039795 
z"/>
<path fill="#000000" opacity="1.000000" stroke="none" 
	d="
M564.757935,434.247223 
	C568.968750,433.288025 572.444397,433.969574 575.238892,436.814850 
	C579.180420,440.827850 579.295898,447.028320 575.617798,450.755676 
	C571.953125,454.469452 563.166321,454.505280 559.603271,450.820953 
	C555.657410,446.740753 555.996826,441.112732 560.604309,436.717987 
	C561.650208,435.720337 563.107422,435.153992 564.757935,434.247223 
z"/>
<path fill="#000000" opacity="1.000000" stroke="none" 
	d="
M602.711304,447.297028 
	C598.328979,440.456329 599.760132,434.059479 605.839783,431.818970 
	C611.663452,429.672821 617.941895,431.559143 620.730347,436.314545 
	C623.639648,441.275970 620.237610,444.549744 617.334229,447.625488 
	C613.531921,451.653473 608.484924,451.456848 602.711304,447.297028 
z"/>
<path fill="#000000" opacity="1.000000" stroke="none" 
	d="
M425.148865,430.678101 
	C431.990540,431.108521 436.289429,434.659241 436.224426,439.469238 
	C436.156464,444.496582 430.558838,450.133667 425.587799,450.180878 
	C420.211426,450.231934 415.654938,445.777985 415.252869,440.078552 
	C414.899078,435.063324 417.689270,432.297211 425.148865,430.678101 
z"/>
<path fill="#000000" opacity="1.000000" stroke="none" 
	d="
M461.120850,471.810425 
	C465.775024,470.746185 469.798981,471.323517 473.349335,473.936310 
	C478.623505,477.817627 478.045441,483.927643 472.144989,486.578339 
	C469.090698,487.950409 465.930420,488.731140 462.481567,487.769653 
	C458.551208,486.673920 455.262238,485.002899 454.745941,480.477295 
	C454.229309,475.948242 456.696075,473.338318 461.120850,471.810425 
z"/>
<path fill="#000000" opacity="1.000000" stroke="none" 
	d="
M471.303284,434.489166 
	C477.428680,436.570587 479.500488,439.898193 478.157654,444.959229 
	C476.863281,449.837646 470.422516,454.190338 465.958008,453.203857 
	C462.321198,452.400238 458.441376,447.169159 459.095032,443.950623 
	C460.184448,438.586609 466.246246,433.691345 471.303284,434.489166 
z"/>
<path fill="#000000" opacity="1.000000" stroke="none" 
	d="
M579.123962,484.902832 
	C573.966614,490.436646 565.813721,490.696350 561.327454,485.809967 
	C557.601013,481.751129 558.503235,476.803650 563.391846,474.284698 
	C567.927368,471.947723 572.652344,472.129944 576.706726,474.724091 
	C580.035645,476.854065 580.437683,480.737427 579.123962,484.902832 
z"/>
</svg>